<?xml version="1.0" encoding="utf-8"?>
<!-- Generator: Adobe Illustrator 23.1.0, SVG Export Plug-In . SVG Version: 6.00 Build 0)  -->
<svg version="1.1" xmlns="http://www.w3.org/2000/svg" xmlns:xlink="http://www.w3.org/1999/xlink" x="0px" y="0px"
	 viewBox="0 0 1000 830" style="enable-background:new 0 0 1000 830;" xml:space="preserve">
<style type="text/css">
	.st0{clip-path:url(#SVGID_2_);}
	.st1{fill:none;stroke:#E6E6E6;stroke-width:8.2851;stroke-linecap:round;stroke-linejoin:round;stroke-miterlimit:10;}
	.st2{fill:#0071BC;}
	.st3{fill:#7AC943;}
	.st4{fill:#00A9AA;}
</style>
<g id="pattern">
	<g>
		<defs>
			<rect id="SVGID_1_" x="5155.35" y="159.73" width="444.29" height="378.01"/>
		</defs>
		<clipPath id="SVGID_2_">
			<use xlink:href="#SVGID_1_"  style="overflow:visible;"/>
		</clipPath>
		<g class="st0">
			<g>
				<path class="st1" d="M5558.77,734.42l51.73-37.12c11.74-8.52,18.69-22.14,18.69-36.65V498.9"/>
			</g>
			<g>
				<path class="st1" d="M5673.66,360.53l-85.33,61.89c-11.74,8.52-18.69,22.14-18.69,36.65v161.76"/>
				<path class="st1" d="M5465.62,714.95l85.33-61.89c11.74-8.52,18.69-22.14,18.69-36.65V454.65"/>
			</g>
			<g>
				<path class="st1" d="M5614.11,316.28l-85.33,61.89c-11.74,8.52-18.69,22.14-18.69,36.65v161.76"/>
				<path class="st1" d="M5426.89,654.68l64.51-45.86c11.74-8.52,18.69-22.14,18.69-36.65V410.41"/>
			</g>
		</g>
		<g class="st0">
			<g>
				<path class="st1" d="M5391.97,505.29l-85.33,61.89c-11.74,8.52-18.69,22.14-18.69,36.65v161.76"/>
			</g>
		</g>
		<g class="st0">
			<g>
				<path class="st1" d="M5236.42,443.63l-32.83,23.04c-11.74,8.52-18.69,22.14-18.69,36.65v161.76"/>
				<path class="st1" d="M5114.48,734.42l51.73-37.12c11.74-8.52,18.69-22.14,18.69-36.65V498.9"/>
			</g>
			<g>
				<path class="st1" d="M5229.38,360.53l-85.33,61.89c-11.74,8.52-18.69,22.14-18.69,36.65v161.76"/>
				<path class="st1" d="M5021.33,714.95l85.33-61.89c11.74-8.52,18.69-22.14,18.69-36.65V454.65"/>
			</g>
			<g>
				<path class="st1" d="M5169.83,316.28l-85.33,61.89c-11.74,8.52-18.69,22.14-18.69,36.65v161.76"/>
			</g>
		</g>
		<g class="st0">
			<g>
				<path class="st1" d="M5558.77,356.42l51.73-37.12c11.74-8.52,18.69-22.14,18.69-36.65V120.89"/>
			</g>
			<g>
				<path class="st1" d="M5673.66-17.48l-85.33,61.89c-11.74,8.52-18.69,22.14-18.69,36.65v161.76"/>
				<path class="st1" d="M5465.62,336.95l85.33-61.89c11.74-8.52,18.69-22.14,18.69-36.65V76.64"/>
			</g>
			<g>
				<path class="st1" d="M5614.11-61.72l-85.33,61.89c-11.74,8.52-18.69,22.14-18.69,36.65v161.76"/>
				<path class="st1" d="M5426.89,276.67l64.51-45.86c11.74-8.52,18.69-22.14,18.69-36.65V32.4"/>
			</g>
		</g>
		<g class="st0">
			<g>
				<path class="st1" d="M5458.57,254.62l-32.83,23.04c-11.74,8.52-18.69,22.14-18.69,36.65v161.76"/>
				<path class="st1" d="M5336.62,545.42l51.73-37.12c11.74-8.52,18.69-22.14,18.69-36.65V309.89"/>
			</g>
			<g>
				<path class="st1" d="M5451.52,171.52l-85.33,61.89c-11.74,8.52-18.69,22.14-18.69,36.65v161.76"/>
				<path class="st1" d="M5243.47,525.95l85.33-61.89c11.74-8.52,18.69-22.14,18.69-36.65V265.65"/>
			</g>
			<g>
				<path class="st1" d="M5391.97,127.28l-85.33,61.89c-11.74,8.52-18.69,22.14-18.69,36.65v161.76"/>
				<path class="st1" d="M5204.75,465.68l64.51-45.86c11.74-8.52,18.69-22.14,18.69-36.65V221.4"/>
			</g>
		</g>
		<g class="st0">
			<g>
				<path class="st1" d="M5236.42,65.62l-32.83,23.04c-11.74,8.52-18.69,22.14-18.69,36.65v161.76"/>
				<path class="st1" d="M5114.48,356.42l51.73-37.12c11.74-8.52,18.69-22.14,18.69-36.65V120.89"/>
			</g>
			<g>
				<path class="st1" d="M5229.38-17.48l-85.33,61.89c-11.74,8.52-18.69,22.14-18.69,36.65v161.76"/>
				<path class="st1" d="M5021.33,336.95l85.33-61.89c11.74-8.52,18.69-22.14,18.69-36.65V76.64"/>
			</g>
			<g>
				<path class="st1" d="M5169.83-61.72l-85.33,61.89c-11.74,8.52-18.69,22.14-18.69,36.65v161.76"/>
			</g>
		</g>
		<g class="st0">
			<g>
				<path class="st1" d="M5336.62,167.41l51.73-37.12c11.74-8.52,18.69-22.14,18.69-36.65V-68.11"/>
			</g>
		</g>
	</g>
</g>
<g id="server">
</g>
<g id="enterprise">
</g>
<g id="finac">
</g>
<g id="green">
</g>
<g id="sea">
</g>
<g id="blue">
	<g>
		<path class="st2" d="M339.36,575.93l-8.21,9.36c-0.54,0.62-1.5,0.63-2.07,0.03c-0.11-0.12-0.23-0.25-0.36-0.38
			c-0.63-0.66-1.96-1.52-3.98-2.57c-2.02-1.06-4.09-1.59-6.2-1.59c-2.68,0-4.79,0.58-6.34,1.73c-1.55,1.15-2.33,2.48-2.33,3.98
			c0,1.83,1.1,3.36,3.31,4.58c2.21,1.22,4.9,2.31,8.07,3.28c3.17,0.96,6.38,2.11,9.62,3.45c3.24,1.34,5.97,3.5,8.18,6.48
			c2.21,2.98,3.31,6.68,3.31,11.1c0,6.34-2.5,11.65-7.51,15.93c-5,4.28-11.88,6.41-20.62,6.41c-3.76,0-7.33-0.45-10.71-1.34
			s-6.13-1.97-8.25-3.24c-2.12-1.27-3.96-2.52-5.53-3.77c-1.53-1.21-2.65-2.24-3.36-3.07c-0.04-0.05-0.07-0.09-0.11-0.14l-0.3-0.45
			c-0.37-0.55-0.3-1.29,0.18-1.76l8.92-8.86c0.57-0.57,1.51-0.55,2.04,0.07c0.26,0.3,0.55,0.62,0.88,0.97
			c0.82,0.87,2.55,2.04,5.18,3.52c2.63,1.48,5.36,2.22,8.18,2.22c3.1,0,5.44-0.6,7.01-1.8c1.57-1.2,2.36-2.76,2.36-4.69
			c0-1.93-1.11-3.54-3.31-4.83c-2.21-1.29-4.93-2.42-8.18-3.38c-3.24-0.96-6.45-2.13-9.62-3.49c-3.17-1.36-5.86-3.48-8.07-6.34
			c-2.21-2.87-3.31-6.48-3.31-10.85c0-5.69,2.64-10.83,7.93-15.44c5.29-4.6,11.78-6.91,19.49-6.91c4.89,0,9.38,0.92,13.5,2.75
			c4.11,1.83,6.97,3.62,8.56,5.36l1.64,1.83C339.82,574.6,339.83,575.39,339.36,575.93z"/>
		<path class="st2" d="M419.59,607.42h-48.17c-0.93,0-1.62,0.9-1.34,1.78c0.98,3.08,2.87,5.74,5.68,7.98
			c3.34,2.66,7.54,3.98,12.62,3.98c3.67,0,7.06-0.72,10.18-2.15c3.12-1.43,5.32-2.88,6.59-4.33l0.93-0.99
			c0.59-0.63,1.59-0.58,2.12,0.1l8.32,10.71c0.43,0.56,0.38,1.34-0.11,1.84l-0.4,0.4c-0.61,0.61-1.88,1.62-3.81,3.03
			c-1.93,1.41-3.97,2.67-6.13,3.77c-2.16,1.1-4.97,2.08-8.42,2.93c-3.45,0.85-7.01,1.27-10.68,1.27c-10.38,0-19.24-3.61-26.57-10.82
			c-7.33-7.21-11-15.87-11-25.97c0-10.1,3.62-18.76,10.85-25.97c7.24-7.21,15.91-10.82,26.01-10.82c10.1,0,18.51,3.37,25.23,10.11
			c6.7,6.73,10.06,15.12,10.08,25.19c0,0.05,0,0.1-0.01,0.15l-0.58,6.55C420.92,606.87,420.31,607.42,419.59,607.42z M396.73,584.44
			c-2.84-2.44-6.33-3.67-10.47-3.67c-4.14,0-7.65,1.2-10.54,3.59c-2.4,1.99-4.2,4.48-5.42,7.46c-0.37,0.91,0.32,1.91,1.3,1.91h28.71
			c0.93,0,1.62-0.91,1.34-1.8C400.75,588.98,399.1,586.48,396.73,584.44z"/>
		<path class="st2" d="M476.37,566.24v16.37c0,0.87-0.78,1.52-1.63,1.37c-1.29-0.23-2.91-0.35-4.85-0.39
			c-5.12,0-9.17,1.62-12.16,4.86c-2.99,3.24-4.48,7.89-4.48,13.96v32.51c0,0.77-0.62,1.4-1.4,1.4h-16.66c-0.77,0-1.4-0.62-1.4-1.4
			v-67.97c0-0.77,0.62-1.4,1.4-1.4h16.66c0.77,0,1.4,0.62,1.4,1.4v3.77c0,1.24,1.5,1.85,2.37,0.96c0.01-0.01,0.02-0.02,0.03-0.03
			c1.03-1.06,3.3-2.45,6.8-4.19c3.5-1.74,7.18-2.61,11.03-2.61h1.5C475.74,564.85,476.37,565.47,476.37,566.24z"/>
		<path class="st2" d="M526.32,636.32h-18.3c-0.58,0-1.1-0.36-1.31-0.9l-25.66-67.97c-0.34-0.91,0.33-1.89,1.31-1.89h17.22
			c0.59,0,1.12,0.37,1.32,0.93l14.92,42.29c0.44,1.24,2.19,1.24,2.63,0l14.99-42.29c0.2-0.56,0.72-0.93,1.31-0.93h17.16
			c0.97,0,1.65,0.97,1.31,1.89l-25.59,67.97C527.42,635.96,526.9,636.32,526.32,636.32z"/>
		<path class="st2" d="M625.02,607.42h-48.17c-0.93,0-1.62,0.9-1.34,1.78c0.98,3.08,2.87,5.74,5.68,7.98
			c3.34,2.66,7.54,3.98,12.62,3.98c3.67,0,7.06-0.72,10.18-2.15c3.12-1.43,5.32-2.88,6.59-4.33l0.93-0.99
			c0.59-0.63,1.59-0.58,2.12,0.1l8.32,10.71c0.43,0.56,0.38,1.34-0.11,1.84l-0.4,0.4c-0.61,0.61-1.88,1.62-3.81,3.03
			c-1.93,1.41-3.97,2.67-6.13,3.77c-2.16,1.1-4.97,2.08-8.42,2.93c-3.45,0.85-7.01,1.27-10.68,1.27c-10.38,0-19.24-3.61-26.57-10.82
			c-7.33-7.21-11-15.87-11-25.97c0-10.1,3.62-18.76,10.85-25.97c7.24-7.21,15.91-10.82,26.01-10.82c10.1,0,18.51,3.37,25.23,10.11
			c6.7,6.73,10.06,15.12,10.08,25.19c0,0.05,0,0.1-0.01,0.15l-0.58,6.55C626.35,606.87,625.75,607.42,625.02,607.42z M602.16,584.44
			c-2.84-2.44-6.33-3.67-10.47-3.67c-4.14,0-7.65,1.2-10.54,3.59c-2.4,1.99-4.2,4.48-5.42,7.46c-0.37,0.91,0.32,1.91,1.3,1.91h28.71
			c0.93,0,1.62-0.91,1.34-1.8C606.18,588.98,604.54,586.48,602.16,584.44z"/>
		<path class="st2" d="M681.8,566.24v16.37c0,0.87-0.78,1.52-1.63,1.37c-1.29-0.23-2.91-0.35-4.85-0.39
			c-5.12,0-9.17,1.62-12.16,4.86c-2.99,3.24-4.48,7.89-4.48,13.96v32.51c0,0.77-0.62,1.4-1.4,1.4h-16.66c-0.77,0-1.4-0.62-1.4-1.4
			v-67.97c0-0.77,0.62-1.4,1.4-1.4h16.66c0.77,0,1.4,0.62,1.4,1.4v3.77c0,1.24,1.5,1.85,2.37,0.96c0.01-0.01,0.02-0.02,0.03-0.03
			c1.03-1.06,3.3-2.45,6.8-4.19c3.5-1.74,7.18-2.61,11.03-2.61h1.5C681.18,564.85,681.8,565.47,681.8,566.24z"/>
		<path class="st2" d="M356.36,493.5h-46.68c-1.41,0-2.43,1.41-1.92,2.72c1.05,2.69,2.83,5.04,5.35,7.04
			c3.34,2.66,7.54,3.98,12.62,3.98c3.67,0,7.06-0.72,10.18-2.15c3.12-1.43,5.32-2.88,6.59-4.33l0.42-0.44
			c0.85-0.91,2.32-0.85,3.09,0.14l7.52,9.67c0.63,0.81,0.56,1.96-0.17,2.69l0,0c-0.61,0.61-1.88,1.62-3.81,3.03
			c-1.93,1.41-3.97,2.67-6.13,3.77c-2.16,1.1-4.97,2.08-8.42,2.93c-3.45,0.85-7.01,1.27-10.68,1.27c-10.38,0-19.24-3.61-26.57-10.82
			c-7.33-7.21-11-15.87-11-25.97c0-10.1,3.62-18.76,10.85-25.97c7.24-7.21,15.91-10.82,26.01-10.82c10.1,0,18.51,3.37,25.23,10.11
			c6.69,6.72,10.05,15.1,10.08,25.16c0,0.07,0,0.15-0.01,0.22l-0.53,5.93C358.29,492.7,357.41,493.5,356.36,493.5z M334.08,470.53
			c-2.84-2.44-6.33-3.67-10.47-3.67c-4.14,0-7.65,1.2-10.54,3.59c-2.13,1.77-3.79,3.93-4.99,6.49c-0.63,1.34,0.37,2.89,1.85,2.89
			h26.84c1.42,0,2.41-1.42,1.91-2.75C337.74,474.53,336.2,472.35,334.08,470.53z"/>
		<path class="st2" d="M390.6,452.88v4.08c0,1.13,1.37,1.67,2.14,0.84c0.08-0.09,0.17-0.18,0.26-0.28c1.03-1.1,3.3-2.6,6.8-4.48
			c3.5-1.88,7.18-2.82,11.03-2.82c8.08,0,14.67,2.8,19.77,8.39c5.1,5.59,7.65,13.13,7.65,22.63v39.92c0,0.68-0.55,1.24-1.24,1.24
			h-16.98c-0.68,0-1.24-0.55-1.24-1.24v-37.74c0-4.32-1.28-7.81-3.84-10.47c-2.56-2.65-5.86-3.98-9.9-3.98
			c-4.42,0-7.93,1.44-10.54,4.33c-2.61,2.89-3.91,6.99-3.91,12.3v35.55c0,0.68-0.55,1.24-1.24,1.24h-16.98
			c-0.68,0-1.24-0.55-1.24-1.24v-68.29c0-0.68,0.55-1.24,1.24-1.24h16.98C390.05,451.64,390.6,452.19,390.6,452.88z"/>
		<path class="st2" d="M461.57,443.74v-11.73c0-0.68,0.55-1.24,1.24-1.24h14.86c0.68,0,1.24,0.55,1.24,1.24v19.87
			c0,0.68,0.55,1.24,1.24,1.24h11.9c0.68,0,1.24,0.55,1.24,1.24v14.86c0,0.68-0.55,1.24-1.24,1.24h-11.9
			c-0.68,0-1.24,0.55-1.24,1.24v26.89c0,2.21,0.81,4.09,2.43,5.64s3.68,2.33,6.17,2.33c1.27,0,2.5-0.13,3.7-0.39
			c1.2-0.26,2.1-0.53,2.71-0.81l0.85-0.28v15.76c0,0.53-0.33,1-0.82,1.17c-3.65,1.25-7.72,1.86-12.22,1.82
			c-14.9,0-22.34-8.18-22.34-24.53v-27.59c0-0.68-0.55-1.24-1.24-1.24h-9.79c-0.68,0-1.24-0.55-1.24-1.24v-14.86
			c0-0.68,0.55-1.24,1.24-1.24h5.25c2.21,0,4.09-0.87,5.64-2.61C460.79,448.77,461.57,446.52,461.57,443.74z"/>
		<path class="st2" d="M573.34,493.5h-48.52c-0.82,0-1.43,0.8-1.19,1.58c0.96,3.17,2.87,5.9,5.74,8.18
			c3.34,2.66,7.54,3.98,12.62,3.98c3.67,0,7.06-0.72,10.18-2.15c3.12-1.43,5.32-2.88,6.59-4.33l1.05-1.13
			c0.52-0.56,1.41-0.51,1.88,0.09l8.52,10.96c0.38,0.49,0.34,1.19-0.1,1.63l-0.5,0.5c-0.61,0.61-1.88,1.62-3.81,3.03
			c-1.93,1.41-3.97,2.67-6.13,3.77c-2.16,1.1-4.97,2.08-8.42,2.93c-3.45,0.85-7.01,1.27-10.68,1.27c-10.38,0-19.24-3.61-26.57-10.82
			c-7.33-7.21-11-15.87-11-25.97c0-10.1,3.62-18.76,10.85-25.97c7.24-7.21,15.91-10.82,26.01-10.82c10.1,0,18.51,3.37,25.23,10.11
			c6.7,6.73,10.06,15.13,10.08,25.2c0,0.04,0,0.09-0.01,0.13l-0.6,6.7C574.52,493.02,573.98,493.5,573.34,493.5z M550.33,470.53
			c-2.84-2.44-6.33-3.67-10.47-3.67c-4.14,0-7.65,1.2-10.54,3.59c-2.45,2.03-4.29,4.59-5.51,7.68c-0.32,0.81,0.29,1.7,1.16,1.7
			h29.16c0.83,0,1.43-0.8,1.19-1.6C554.43,475.19,552.76,472.62,550.33,470.53z"/>
		<path class="st2" d="M628.98,452.17v16.71c0,0.77-0.69,1.36-1.45,1.22c-1.32-0.25-3-0.39-5.04-0.42c-5.12,0-9.17,1.62-12.16,4.86
			c-2.99,3.24-4.48,7.89-4.48,13.96v32.67c0,0.68-0.55,1.24-1.24,1.24h-16.98c-0.68,0-1.24-0.55-1.24-1.24v-68.29
			c0-0.68,0.55-1.24,1.24-1.24h16.98c0.68,0,1.24,0.55,1.24,1.24v4.28c0,1.11,1.34,1.66,2.12,0.87c0.09-0.09,0.18-0.19,0.28-0.29
			c1.03-1.06,3.3-2.45,6.8-4.19c3.5-1.74,7.18-2.61,11.03-2.61h1.65C628.42,450.93,628.98,451.49,628.98,452.17z"/>
		<path class="st2" d="M678.63,523.81c-4.04,0-7.81-0.83-11.31-2.5c-3.5-1.67-5.98-3.32-7.44-4.97l0,0
			c-0.74-0.89-2.19-0.36-2.19,0.79v34.34c0,0.68-0.55,1.24-1.24,1.24h-16.98c-0.68,0-1.24-0.55-1.24-1.24v-98.6
			c0-0.68,0.55-1.24,1.24-1.24h16.98c0.68,0,1.24,0.55,1.24,1.24v7.43c0.19-0.28,0.48-0.63,0.88-1.06c0.4-0.42,1.24-1.21,2.54-2.36
			c1.29-1.15,2.69-2.19,4.19-3.1c1.5-0.92,3.45-1.74,5.85-2.47c2.4-0.73,4.89-1.09,7.47-1.09c9.16,0,17.12,3.56,23.86,10.68
			c6.74,7.12,10.11,15.82,10.11,26.11s-3.37,19-10.11,26.11C695.75,520.25,687.8,523.81,678.63,523.81z M687.34,473.03
			c-3.36-3.64-7.45-5.46-12.26-5.46s-8.92,1.82-12.3,5.46c-3.38,3.64-5.08,8.31-5.08,13.99c0,5.69,1.69,10.36,5.08,14.03
			c3.38,3.67,7.48,5.5,12.3,5.5s8.9-1.83,12.26-5.5c3.36-3.67,5.04-8.34,5.04-14.03C692.38,481.34,690.7,476.67,687.34,473.03z"/>
		<path class="st2" d="M767.42,452.17v16.71c0,0.77-0.69,1.36-1.45,1.22c-1.32-0.25-3-0.39-5.04-0.42c-5.12,0-9.17,1.62-12.16,4.86
			c-2.99,3.24-4.48,7.89-4.48,13.96v32.67c0,0.68-0.55,1.24-1.24,1.24h-16.98c-0.68,0-1.24-0.55-1.24-1.24v-68.29
			c0-0.68,0.55-1.24,1.24-1.24h16.98c0.68,0,1.24,0.55,1.24,1.24v4.28c0,1.11,1.34,1.66,2.12,0.87c0.09-0.09,0.18-0.19,0.28-0.29
			c1.03-1.06,3.3-2.45,6.8-4.19c3.5-1.74,7.18-2.61,11.03-2.61h1.65C766.87,450.93,767.42,451.49,767.42,452.17z"/>
		<path class="st2" d="M793.54,423.59c2.07,1.97,3.1,4.59,3.1,7.86c0,3.27-1.03,5.89-3.1,7.86c-2.07,1.97-4.89,2.96-8.46,2.96
			c-3.29,0-5.91-0.99-7.86-2.96c-1.95-1.97-2.92-4.59-2.92-7.86c0-3.27,0.99-5.89,2.96-7.86c1.97-1.97,4.58-2.96,7.82-2.96
			C788.65,420.63,791.47,421.61,793.54,423.59z M795.23,452.88v68.29c0,0.68-0.55,1.24-1.24,1.24h-17.05
			c-0.68,0-1.24-0.55-1.24-1.24v-68.29c0-0.68,0.55-1.24,1.24-1.24h17.05C794.67,451.64,795.23,452.19,795.23,452.88z"/>
		<path class="st2" d="M861.15,461.08l-10.08,11.49c-0.28-0.38-0.74-0.89-1.38-1.55c-0.63-0.66-1.96-1.52-3.98-2.57
			c-2.02-1.06-4.09-1.59-6.2-1.59c-2.68,0-4.79,0.58-6.34,1.73c-1.55,1.15-2.33,2.48-2.33,3.98c0,1.83,1.1,3.36,3.31,4.58
			c2.21,1.22,4.9,2.31,8.07,3.28c3.17,0.96,6.38,2.11,9.62,3.45c3.24,1.34,5.97,3.5,8.18,6.48c2.21,2.98,3.31,6.68,3.31,11.1
			c0,6.34-2.5,11.65-7.51,15.93c-5,4.28-11.88,6.41-20.62,6.41c-3.76,0-7.33-0.45-10.71-1.34s-6.13-1.97-8.25-3.24
			c-2.12-1.27-3.96-2.52-5.53-3.77c-1.58-1.24-2.71-2.29-3.42-3.14l-0.99-1.48l10.85-10.78c0.38,0.56,0.97,1.28,1.8,2.15
			c0.82,0.87,2.55,2.04,5.18,3.52c2.63,1.48,5.36,2.22,8.18,2.22c3.1,0,5.44-0.6,7.01-1.8c1.57-1.2,2.36-2.76,2.36-4.69
			c0-1.93-1.11-3.54-3.31-4.83c-2.21-1.29-4.93-2.42-8.18-3.38c-3.24-0.96-6.45-2.13-9.62-3.49c-3.17-1.36-5.86-3.48-8.07-6.34
			c-2.21-2.87-3.31-6.48-3.31-10.85c0-5.69,2.64-10.83,7.93-15.44c5.29-4.6,11.78-6.91,19.49-6.91c4.89,0,9.38,0.92,13.5,2.75
			c4.11,1.83,6.97,3.62,8.56,5.36L861.15,461.08z"/>
		<path class="st2" d="M941.84,493.5H890.6c0.75,3.85,2.79,7.11,6.13,9.76c3.34,2.66,7.54,3.98,12.62,3.98
			c3.67,0,7.06-0.72,10.18-2.15c3.12-1.43,5.32-2.88,6.59-4.33l2.04-2.19l10.08,12.97l-1.27,1.27c-0.61,0.61-1.88,1.62-3.81,3.03
			c-1.93,1.41-3.97,2.67-6.13,3.77c-2.16,1.1-4.97,2.08-8.42,2.93c-3.45,0.85-7.01,1.27-10.68,1.27c-10.38,0-19.24-3.61-26.57-10.82
			c-7.33-7.21-11-15.87-11-25.97c0-10.1,3.62-18.76,10.85-25.97c7.24-7.21,15.91-10.82,26.01-10.82c10.1,0,18.51,3.37,25.23,10.11
			c6.72,6.74,10.08,15.17,10.08,25.27L941.84,493.5z M917.7,470.53c-2.84-2.44-6.33-3.67-10.47-3.67c-4.14,0-7.65,1.2-10.54,3.59
			s-4.92,5.52-6.1,9.37h32.49C922.34,476.07,920.55,472.97,917.7,470.53z"/>
		<path class="st2" d="M330.8,341.29v14.58c0,0.76-0.62,1.38-1.38,1.38h-13.1c-0.76,0-1.38,0.62-1.38,1.38v48.48
			c0,0.76-0.62,1.38-1.38,1.38H296.8c-0.76,0-1.38-0.62-1.38-1.38v-48.48c0-0.76-0.62-1.38-1.38-1.38h-7.32
			c-0.76,0-1.38-0.62-1.38-1.38v-14.58c0-0.76,0.62-1.38,1.38-1.38h7.32c0.76,0,1.38-0.62,1.38-1.38v-7.99
			c0-16.35,7.47-24.53,22.41-24.53c2.12,0,4.25,0.19,6.41,0.56c2.16,0.38,3.83,0.75,5,1.13l0.59,0.19c0.57,0.18,0.96,0.71,0.96,1.32
			v13.54c0,0.92-0.88,1.59-1.76,1.32c-1.57-0.48-3.38-0.72-5.43-0.72c-2.49,0-4.56,0.76-6.2,2.29c-1.64,1.53-2.47,3.4-2.47,5.6v7.29
			c0,0.76,0.62,1.38,1.38,1.38h13.1C330.18,339.91,330.8,340.53,330.8,341.29z"/>
		<path class="st2" d="M359.61,309.67c2.07,1.97,3.1,4.59,3.1,7.86c0,3.27-1.03,5.89-3.1,7.86c-2.07,1.97-4.89,2.96-8.46,2.96
			c-3.29,0-5.91-0.99-7.86-2.96c-1.95-1.97-2.92-4.59-2.92-7.86c0-3.27,0.99-5.89,2.96-7.86c1.97-1.97,4.58-2.96,7.82-2.96
			C354.73,306.71,357.54,307.7,359.61,309.67z M361.3,339.11v68c0,0.76-0.62,1.38-1.38,1.38h-16.76c-0.76,0-1.38-0.62-1.38-1.38v-68
			c0-0.76,0.62-1.38,1.38-1.38h16.76C360.69,337.73,361.3,338.34,361.3,339.11z"/>
		<path class="st2" d="M398.64,339.11v3.61c0,1.24,1.52,1.83,2.37,0.93c0.01-0.01,0.02-0.02,0.03-0.03c1.03-1.1,3.3-2.6,6.8-4.48
			c3.5-1.88,7.18-2.82,11.03-2.82c8.08,0,14.67,2.8,19.77,8.39c5.1,5.59,7.65,13.13,7.65,22.63v39.78c0,0.76-0.62,1.38-1.38,1.38
			h-16.69c-0.76,0-1.38-0.62-1.38-1.38v-37.6c0-4.32-1.28-7.81-3.84-10.47c-2.56-2.65-5.86-3.98-9.9-3.98
			c-4.42,0-7.93,1.44-10.54,4.33c-2.61,2.89-3.91,6.99-3.91,12.3v35.41c0,0.76-0.62,1.38-1.38,1.38h-16.69
			c-0.76,0-1.38-0.62-1.38-1.38v-68c0-0.76,0.62-1.38,1.38-1.38h16.69C398.02,337.73,398.64,338.34,398.64,339.11z"/>
		<path class="st2" d="M499,407.11v-2.41c0-1.21-1.45-1.83-2.33-0.99c-0.01,0.01-0.02,0.02-0.03,0.03
			c-1.01,0.96-3.21,2.23-6.59,3.81c-3.38,1.57-6.91,2.36-10.57,2.36c-7.05,0-12.78-1.96-17.2-5.89c-4.42-3.92-6.63-8.68-6.63-14.27
			c0-5.78,1.86-10.6,5.57-14.45c3.71-3.85,8.83-6.37,15.37-7.54l21.2-3.8c0.72-0.13,1.22-0.8,1.14-1.52
			c-0.28-2.37-1.33-4.36-3.17-5.95c-2.16-1.88-5.17-2.82-9.02-2.82c-3.2,0-6.11,0.6-8.74,1.8c-2.63,1.2-4.49,2.43-5.57,3.7
			l-0.64,0.67c-0.54,0.56-1.43,0.57-1.97,0.02l-8.93-8.93c-0.49-0.49-0.55-1.27-0.12-1.82c0.13-0.17,0.28-0.36,0.43-0.55
			c0.49-0.63,1.6-1.73,3.31-3.28c1.71-1.55,3.58-2.93,5.6-4.12c2.8-1.66,6.83-3.14,12.08-4.45c0.07-0.02,0.14-0.03,0.21-0.04
			c11.6-1.33,20.8,1.22,27.61,7.66c5.64,5.33,8.46,12.04,8.46,20.12v42.67c0,0.76-0.62,1.38-1.38,1.38h-16.69
			C499.62,408.49,499,407.87,499,407.11z M484.55,394.04c4.42,0,7.93-1.4,10.54-4.19c2.61-2.79,3.91-6.68,3.91-11.67v-0.53
			c0-0.86-0.78-1.51-1.63-1.36l-14.23,2.59c-5.31,0.85-7.96,3.5-7.96,7.96C475.17,391.64,478.3,394.04,484.55,394.04z"/>
		<path class="st2" d="M541.16,398.87c-7.57-7.35-11.35-15.94-11.35-25.76c0-9.82,3.78-18.41,11.35-25.76
			c7.56-7.35,16.54-11.03,26.92-11.03c3.67,0,7.15,0.51,10.47,1.52c3.31,1.01,6.03,2.21,8.14,3.59c2.11,1.39,3.99,2.78,5.64,4.19
			c1.64,1.41,2.84,2.63,3.59,3.67l0.38,0.53c0.39,0.55,0.33,1.3-0.15,1.78l-10.25,10.25c-0.6,0.6-1.59,0.52-2.1-0.17
			c-0.28-0.38-0.6-0.79-0.96-1.25c-0.87-1.08-2.75-2.48-5.64-4.19c-2.89-1.71-5.93-2.57-9.13-2.57c-5.12,0-9.53,1.9-13.21,5.71
			c-3.69,3.81-5.53,8.4-5.53,13.78c0,5.38,1.86,9.97,5.57,13.78c3.71,3.81,8.11,5.71,13.18,5.71c3.2,0,6.24-0.78,9.13-2.33
			s4.99-3.1,6.31-4.65l0.91-1.15c0.52-0.66,1.51-0.7,2.09-0.09l9.67,10.26c0.46,0.48,0.51,1.22,0.11,1.76
			c-0.15,0.2-0.31,0.43-0.49,0.67c-0.49,0.68-1.63,1.83-3.42,3.45c-1.79,1.62-3.71,3.05-5.78,4.3c-2.07,1.25-4.76,2.4-8.07,3.45
			s-6.8,1.59-10.47,1.59C557.7,409.9,548.72,406.22,541.16,398.87z"/>
		<g>
			<path class="st3" d="M91.81,405.23c-7.73,0-14-6.27-14-14V241.82c0-17.82,8.61-34.71,23.04-45.18l78.82-57.17
				c6.26-4.54,15.01-3.15,19.55,3.11c4.54,6.26,3.15,15.01-3.11,19.55l-78.82,57.17c-7.19,5.21-11.48,13.63-11.48,22.51v149.41
				C105.81,398.96,99.54,405.23,91.81,405.23z"/>
		</g>
		<g>
			<path class="st4" d="M151.43,449.44c-7.73,0-14-6.27-14-14V286.03c0-17.82,8.61-34.71,23.04-45.18l78.82-57.17
				c6.26-4.54,15.01-3.15,19.55,3.11c4.54,6.26,3.15,15.01-3.11,19.55l-78.82,57.17c-7.19,5.21-11.48,13.63-11.48,22.51v149.41
				C165.43,443.17,159.16,449.44,151.43,449.44z"/>
		</g>
		<g>
			<g>
				<path class="st2" d="M114.98,580.59c-4.33,0-8.61-2-11.34-5.78c-4.54-6.26-3.15-15.01,3.11-19.55l78.82-57.17
					c7.19-5.21,11.48-13.63,11.48-22.51V330.24c0-17.82,8.61-34.71,23.04-45.18l78.82-57.17c6.26-4.54,15.01-3.15,19.55,3.11
					s3.15,15.01-3.11,19.55l-78.82,57.17c-7.19,5.21-11.48,13.63-11.48,22.51v145.33c0,17.82-8.61,34.71-23.04,45.18l-78.82,57.17
					C120.71,579.72,117.83,580.59,114.98,580.59z"/>
			</g>
		</g>
	</g>
</g>
</svg>
