<svg xmlns="http://www.w3.org/2000/svg" viewBox="0 0 1000 830"><defs><style>.cls-1{fill:#0071bc;}.cls-2{fill:#7ac943;}.cls-3{fill:#00a9aa;}.cls-4{fill:none;}</style></defs><title>fes_</title><g id="Layer_2" data-name="Layer 2"><g id="blue"><path class="cls-1" d="M842,450.15l-19,21.66a3.23,3.23,0,0,1-4.79.05c-.26-.27-.53-.57-.83-.87-1.46-1.52-4.54-3.51-9.21-5.95a30.59,30.59,0,0,0-14.35-3.67q-9.3,0-14.68,4t-5.38,9.22q0,6.36,7.67,10.6a96.58,96.58,0,0,0,18.67,7.58q11,3.35,22.26,8a44.35,44.35,0,0,1,18.91,15q7.66,10.37,7.67,25.69,0,22-17.37,36.85t-47.7,14.84a96.91,96.91,0,0,1-24.78-3.1q-11.75-3.09-19.08-7.5a121,121,0,0,1-12.8-8.72,56.9,56.9,0,0,1-7.78-7.11,2.85,2.85,0,0,1-.25-.33l-.69-1a3.22,3.22,0,0,1,.41-4.08l20.63-20.5a3.24,3.24,0,0,1,4.72.15c.59.7,1.27,1.44,2,2.25q2.87,3,12,8.15a38,38,0,0,0,18.92,5.14q10.76,0,16.22-4.16a13,13,0,0,0,5.47-10.84q0-6.69-7.67-11.17a86.35,86.35,0,0,0-18.92-7.83A203.42,203.42,0,0,1,750,514.37a46.62,46.62,0,0,1-18.67-14.68q-7.67-9.94-7.66-25.11,0-19.74,18.34-35.72t45.09-16a75.82,75.82,0,0,1,31.23,6.36q14.26,6.36,19.82,12.4l3.79,4.23A3.22,3.22,0,0,1,842,450.15Z"/><path class="cls-1" d="M700,523H592a4.68,4.68,0,0,0-4.43,6.29,38.58,38.58,0,0,0,12.37,16.29q11.58,9.23,29.19,9.22a55.76,55.76,0,0,0,23.56-5q10.85-5,15.25-10l1-1a4.7,4.7,0,0,1,7.15.32l17.39,22.38a4.69,4.69,0,0,1-.39,6.21h0a89.23,89.23,0,0,1-8.8,7A105.4,105.4,0,0,1,670,583.43a91.26,91.26,0,0,1-19.48,6.76,103.42,103.42,0,0,1-24.71,2.94q-36,0-61.48-25T538.93,508q0-35.07,25.12-60.09t60.17-25q35.06,0,58.38,23.4t23.32,58.21a4.36,4.36,0,0,1,0,.51l-1.22,13.72A4.71,4.71,0,0,1,700,523Zm-51.54-53.16q-9.87-8.48-24.22-8.48t-24.38,8.32a42.69,42.69,0,0,0-11.55,15,4.71,4.71,0,0,0,4.29,6.68h62.1a4.72,4.72,0,0,0,4.43-6.35A36.92,36.92,0,0,0,648.44,469.85Z"/><path class="cls-1" d="M528.72,430.73v33.72a3.2,3.2,0,0,1-3.2,3.2h-30.3a3.19,3.19,0,0,0-3.19,3.2V583a3.19,3.19,0,0,1-3.2,3.19H450.05a3.19,3.19,0,0,1-3.19-3.19V470.85a3.2,3.2,0,0,0-3.2-3.2H426.73a3.19,3.19,0,0,1-3.19-3.2V430.73a3.19,3.19,0,0,1,3.19-3.2h16.93a3.19,3.19,0,0,0,3.2-3.19V405.85q0-56.76,51.85-56.75a86.37,86.37,0,0,1,14.84,1.3A91.94,91.94,0,0,1,525.13,353l1.36.43a3.21,3.21,0,0,1,2.23,3.05v31.33a3.17,3.17,0,0,1-4.08,3.06,43,43,0,0,0-12.55-1.67,20.3,20.3,0,0,0-14.36,5.3,17,17,0,0,0-5.7,13v16.86a3.19,3.19,0,0,0,3.19,3.19h30.3A3.2,3.2,0,0,1,528.72,430.73Z"/><path class="cls-2" d="M153.23,470.48a20.61,20.61,0,0,1-20.61-20.62v-220a82.4,82.4,0,0,1,33.93-66.52L282.6,79.18a20.61,20.61,0,1,1,24.2,33.37l-116,84.17a41.09,41.09,0,0,0-16.91,33.15v220A20.61,20.61,0,0,1,153.23,470.48Z"/><path class="cls-3" d="M241,535.57A20.62,20.62,0,0,1,220.4,515V295a82.42,82.42,0,0,1,33.93-66.52l116-84.18a20.62,20.62,0,0,1,24.21,33.38l-116,84.17A41.06,41.06,0,0,0,261.63,295V515A20.61,20.61,0,0,1,241,535.57Z"/><path class="cls-1" d="M187.35,728.68a20.61,20.61,0,0,1-12.12-37.3l116-84.17a41.06,41.06,0,0,0,16.91-33.15v-214a82.41,82.41,0,0,1,33.93-66.53l116.05-84.17a20.61,20.61,0,0,1,24.2,33.38l-116,84.17a41.08,41.08,0,0,0-16.9,33.15v214a82.43,82.43,0,0,1-33.93,66.52l-116,84.17A20.57,20.57,0,0,1,187.35,728.68Z"/><rect class="cls-4" width="1000" height="830"/></g></g></svg>